<svg width="20" height="21" viewBox="0 0 20 21" fill="none" xmlns="http://www.w3.org/2000/svg">
<path d="M6.66667 5.29166C6.325 5.29166 6.04167 5.00832 6.04167 4.66666V2.16666C6.04167 1.82499 6.325 1.54166 6.66667 1.54166C7.00833 1.54166 7.29167 1.82499 7.29167 2.16666V4.66666C7.29167 5.00832 7.00833 5.29166 6.66667 5.29166Z" fill="#BEC2DA"/>
<path d="M13.3333 5.29166C12.9917 5.29166 12.7083 5.00832 12.7083 4.66666V2.16666C12.7083 1.82499 12.9917 1.54166 13.3333 1.54166C13.675 1.54166 13.9583 1.82499 13.9583 2.16666V4.66666C13.9583 5.00832 13.675 5.29166 13.3333 5.29166Z" fill="#BEC2DA"/>
<path d="M7.08333 12.5833C6.975 12.5833 6.86667 12.5583 6.76667 12.5167C6.65833 12.475 6.575 12.4167 6.49167 12.3417C6.34167 12.1833 6.25 11.975 6.25 11.75C6.25 11.6417 6.275 11.5333 6.31667 11.4333C6.35833 11.3333 6.41667 11.2417 6.49167 11.1583C6.575 11.0833 6.65833 11.025 6.76667 10.9833C7.06667 10.8583 7.44167 10.925 7.675 11.1583C7.825 11.3167 7.91667 11.5333 7.91667 11.75C7.91667 11.8 7.90833 11.8583 7.9 11.9167C7.89167 11.9667 7.875 12.0167 7.85 12.0667C7.83333 12.1167 7.80833 12.1667 7.775 12.2167C7.75 12.2583 7.70833 12.3 7.675 12.3417C7.51667 12.4917 7.3 12.5833 7.08333 12.5833Z" fill="#BEC2DA"/>
<path d="M10 12.5833C9.89167 12.5833 9.78333 12.5583 9.68333 12.5167C9.575 12.475 9.49167 12.4166 9.40833 12.3416C9.25833 12.1833 9.16667 11.975 9.16667 11.75C9.16667 11.6417 9.19167 11.5333 9.23333 11.4333C9.275 11.3333 9.33333 11.2417 9.40833 11.1583C9.49167 11.0833 9.575 11.025 9.68333 10.9833C9.98333 10.85 10.3583 10.925 10.5917 11.1583C10.7417 11.3167 10.8333 11.5333 10.8333 11.75C10.8333 11.8 10.825 11.8583 10.8167 11.9167C10.8083 11.9667 10.7917 12.0167 10.7667 12.0667C10.75 12.1167 10.725 12.1667 10.6917 12.2167C10.6667 12.2583 10.625 12.3 10.5917 12.3416C10.4333 12.4916 10.2167 12.5833 10 12.5833Z" fill="#BEC2DA"/>
<path d="M12.9167 12.5833C12.8083 12.5833 12.7 12.5583 12.6 12.5167C12.4917 12.475 12.4083 12.4166 12.325 12.3416C12.2917 12.3 12.2583 12.2583 12.225 12.2167C12.1917 12.1667 12.1667 12.1167 12.15 12.0667C12.125 12.0167 12.1083 11.9667 12.1 11.9167C12.0917 11.8583 12.0833 11.8 12.0833 11.75C12.0833 11.5333 12.175 11.3167 12.325 11.1583C12.4083 11.0833 12.4917 11.025 12.6 10.9833C12.9083 10.85 13.275 10.925 13.5083 11.1583C13.6583 11.3167 13.75 11.5333 13.75 11.75C13.75 11.8 13.7417 11.8583 13.7333 11.9167C13.725 11.9667 13.7083 12.0167 13.6833 12.0667C13.6667 12.1167 13.6417 12.1667 13.6083 12.2167C13.5833 12.2583 13.5417 12.3 13.5083 12.3416C13.35 12.4916 13.1333 12.5833 12.9167 12.5833Z" fill="#BEC2DA"/>
<path d="M7.08333 15.5C6.975 15.5 6.86667 15.475 6.76667 15.4333C6.66667 15.3917 6.575 15.3333 6.49167 15.2583C6.34167 15.1 6.25 14.8833 6.25 14.6667C6.25 14.5583 6.275 14.45 6.31667 14.35C6.35833 14.2417 6.41667 14.15 6.49167 14.075C6.8 13.7667 7.36667 13.7667 7.675 14.075C7.825 14.2333 7.91667 14.45 7.91667 14.6667C7.91667 14.8833 7.825 15.1 7.675 15.2583C7.51667 15.4083 7.3 15.5 7.08333 15.5Z" fill="#BEC2DA"/>
<path d="M10 15.5C9.78333 15.5 9.56667 15.4083 9.40833 15.2583C9.25833 15.1 9.16667 14.8833 9.16667 14.6667C9.16667 14.5583 9.19167 14.45 9.23333 14.35C9.275 14.2417 9.33333 14.15 9.40833 14.075C9.71667 13.7667 10.2833 13.7667 10.5917 14.075C10.6667 14.15 10.725 14.2417 10.7667 14.35C10.8083 14.45 10.8333 14.5583 10.8333 14.6667C10.8333 14.8833 10.7417 15.1 10.5917 15.2583C10.4333 15.4083 10.2167 15.5 10 15.5Z" fill="#BEC2DA"/>
<path d="M12.9167 15.5C12.7 15.5 12.4833 15.4083 12.325 15.2583C12.25 15.1833 12.1917 15.0917 12.15 14.9834C12.1083 14.8834 12.0833 14.775 12.0833 14.6667C12.0833 14.5584 12.1083 14.45 12.15 14.35C12.1917 14.2417 12.25 14.15 12.325 14.075C12.5167 13.8834 12.8083 13.7917 13.075 13.85C13.1333 13.8583 13.1833 13.875 13.2333 13.9C13.2833 13.9167 13.3333 13.9417 13.3833 13.975C13.425 14 13.4667 14.0417 13.5083 14.075C13.6583 14.2334 13.75 14.45 13.75 14.6667C13.75 14.8834 13.6583 15.1 13.5083 15.2583C13.35 15.4083 13.1333 15.5 12.9167 15.5Z" fill="#BEC2DA"/>
<path d="M17.0833 8.69996H2.91667C2.575 8.69996 2.29167 8.41663 2.29167 8.07496C2.29167 7.73329 2.575 7.44996 2.91667 7.44996H17.0833C17.425 7.44996 17.7083 7.73329 17.7083 8.07496C17.7083 8.41663 17.425 8.69996 17.0833 8.69996Z" fill="#BEC2DA"/>
<path d="M13.3333 19.4583H6.66667C3.625 19.4583 1.875 17.7083 1.875 14.6667V7.58332C1.875 4.54166 3.625 2.79166 6.66667 2.79166H13.3333C16.375 2.79166 18.125 4.54166 18.125 7.58332V14.6667C18.125 17.7083 16.375 19.4583 13.3333 19.4583ZM6.66667 4.04166C4.28333 4.04166 3.125 5.19999 3.125 7.58332V14.6667C3.125 17.05 4.28333 18.2083 6.66667 18.2083H13.3333C15.7167 18.2083 16.875 17.05 16.875 14.6667V7.58332C16.875 5.19999 15.7167 4.04166 13.3333 4.04166H6.66667Z" fill="#BEC2DA"/>
</svg>
