<svg width="28" height="28" viewBox="0 0 28 28" fill="none" xmlns="http://www.w3.org/2000/svg">
<path d="M16.5902 25.235C15.2135 25.235 13.2652 24.2667 11.7252 19.635L10.8852 17.115L8.36519 16.275C3.74519 14.735 2.77686 12.7867 2.77686 11.41C2.77686 10.045 3.74519 8.08501 8.36519 6.53335L18.2702 3.23168C20.7435 2.40335 22.8085 2.64835 24.0802 3.90835C25.3519 5.16835 25.5969 7.24501 24.7685 9.71835L21.4669 19.6233C19.9152 24.2667 17.9669 25.235 16.5902 25.235ZM8.91352 8.20168C5.67019 9.28668 4.51519 10.57 4.51519 11.41C4.51519 12.25 5.67019 13.5333 8.91352 14.6067L11.8535 15.5867C12.1102 15.6683 12.3202 15.8783 12.4019 16.135L13.3819 19.075C14.4552 22.3183 15.7502 23.4733 16.5902 23.4733C17.4302 23.4733 18.7135 22.3183 19.7985 19.075L23.1002 9.17001C23.6952 7.37335 23.5902 5.90335 22.8319 5.14501C22.0735 4.38668 20.6035 4.29335 18.8185 4.88835L8.91352 8.20168Z" fill="#00B2FF"/>
<path d="M11.7952 16.8C11.5735 16.8 11.3519 16.7183 11.1769 16.5433C10.8385 16.205 10.8385 15.645 11.1769 15.3067L15.3535 11.1183C15.6919 10.78 16.2519 10.78 16.5902 11.1183C16.9285 11.4567 16.9285 12.0167 16.5902 12.355L12.4135 16.5433C12.2502 16.7183 12.0169 16.8 11.7952 16.8Z" fill="#00B2FF"/>
</svg>
